<svg width="132" height="123" viewBox="0 0 132 123" fill="none" xmlns="http://www.w3.org/2000/svg">
<path d="M32.875 23.8125V5.0625C32.875 3.8193 33.3689 2.62701 34.2479 1.74794C35.127 0.86886 36.3193 0.375 37.5625 0.375C38.8057 0.375 39.998 0.86886 40.8771 1.74794C41.7561 2.62701 42.25 3.8193 42.25 5.0625V23.8125C42.25 25.0557 41.7561 26.248 40.8771 27.1271C39.998 28.0061 38.8057 28.5 37.5625 28.5C36.3193 28.5 35.127 28.0061 34.2479 27.1271C33.3689 26.248 32.875 25.0557 32.875 23.8125ZM56.3125 28.5C57.5557 28.5 58.748 28.0061 59.6271 27.1271C60.5061 26.248 61 25.0557 61 23.8125V5.0625C61 3.8193 60.5061 2.62701 59.6271 1.74794C58.748 0.86886 57.5557 0.375 56.3125 0.375C55.0693 0.375 53.877 0.86886 52.9979 1.74794C52.1189 2.62701 51.625 3.8193 51.625 5.0625V23.8125C51.625 25.0557 52.1189 26.248 52.9979 27.1271C53.877 28.0061 55.0693 28.5 56.3125 28.5ZM75.0625 28.5C76.3057 28.5 77.498 28.0061 78.3771 27.1271C79.2561 26.248 79.75 25.0557 79.75 23.8125V5.0625C79.75 3.8193 79.2561 2.62701 78.3771 1.74794C77.498 0.86886 76.3057 0.375 75.0625 0.375C73.8193 0.375 72.627 0.86886 71.7479 1.74794C70.8689 2.62701 70.375 3.8193 70.375 5.0625V23.8125C70.375 25.0557 70.8689 26.248 71.7479 27.1271C72.627 28.0061 73.8193 28.5 75.0625 28.5ZM131.312 61.3125V66C131.311 71.9622 129.037 77.6996 124.953 82.0441C120.87 86.3886 115.285 89.0136 109.334 89.3848C106.137 98.4291 100.693 106.512 93.5137 112.875H107.875C109.118 112.875 110.31 113.369 111.19 114.248C112.069 115.127 112.562 116.319 112.562 117.562C112.562 118.806 112.069 119.998 111.19 120.877C110.31 121.756 109.118 122.25 107.875 122.25H4.75C3.5068 122.25 2.31451 121.756 1.43544 120.877C0.55636 119.998 0.0625 118.806 0.0625 117.562C0.0625 116.319 0.55636 115.127 1.43544 114.248C2.31451 113.369 3.5068 112.875 4.75 112.875H19.1289C13.1482 107.591 8.35642 101.099 5.06979 93.8267C1.78317 86.5545 0.0765089 78.6679 0.0625 70.6875V42.5625C0.0625 41.3193 0.55636 40.127 1.43544 39.2479C2.31451 38.3689 3.5068 37.875 4.75 37.875H107.875C114.091 37.875 120.052 40.3443 124.448 44.7397C128.843 49.1351 131.312 55.0965 131.312 61.3125ZM103.188 47.25H9.4375V70.6875C9.45557 79.4887 11.9428 88.1083 16.6164 95.5662C21.29 103.024 27.9624 109.021 35.875 112.875H76.75C84.6626 109.021 91.335 103.024 96.0086 95.5662C100.682 88.1083 103.169 79.4887 103.188 70.6875V47.25ZM121.938 61.3125C121.937 58.4052 121.035 55.5696 119.356 53.1961C117.677 50.8225 115.304 49.0277 112.562 48.0586V70.6875C112.559 73.6311 112.324 76.5698 111.859 79.4766C114.768 78.6173 117.321 76.8408 119.137 74.4121C120.953 71.9835 121.935 69.0327 121.938 66V61.3125Z" fill="#FFF4D8"/>
</svg>
