<svg width="104" height="127" viewBox="0 0 104 127" fill="none" xmlns="http://www.w3.org/2000/svg">
<path d="M75.4375 80.0625C75.4375 81.3057 74.9436 82.498 74.0646 83.3771C73.1855 84.2561 71.9932 84.75 70.75 84.75H33.25C32.0068 84.75 30.8145 84.2561 29.9354 83.3771C29.0564 82.498 28.5625 81.3057 28.5625 80.0625C28.5625 78.8193 29.0564 77.627 29.9354 76.7479C30.8145 75.8689 32.0068 75.375 33.25 75.375H70.75C71.9932 75.375 73.1855 75.8689 74.0646 76.7479C74.9436 77.627 75.4375 78.8193 75.4375 80.0625ZM70.75 56.625H33.25C32.0068 56.625 30.8145 57.1189 29.9354 57.9979C29.0564 58.877 28.5625 60.0693 28.5625 61.3125C28.5625 62.5557 29.0564 63.748 29.9354 64.6271C30.8145 65.5061 32.0068 66 33.25 66H70.75C71.9932 66 73.1855 65.5061 74.0646 64.6271C74.9436 63.748 75.4375 62.5557 75.4375 61.3125C75.4375 60.0693 74.9436 58.877 74.0646 57.9979C73.1855 57.1189 71.9932 56.625 70.75 56.625ZM103.562 19.125V117.563C103.562 120.049 102.575 122.433 100.817 124.192C99.0585 125.95 96.6739 126.938 94.1875 126.938H9.8125C7.3261 126.938 4.94153 125.95 3.18337 124.192C1.42522 122.433 0.4375 120.049 0.4375 117.563V19.125C0.4375 16.6386 1.42522 14.254 3.18337 12.4959C4.94153 10.7377 7.3261 9.75001 9.8125 9.75001H31.0586C33.6924 6.80112 36.9193 4.44175 40.5281 2.82632C44.1369 1.2109 48.0462 0.375854 52 0.375854C55.9538 0.375854 59.8631 1.2109 63.4719 2.82632C67.0807 4.44175 70.3076 6.80112 72.9414 9.75001H94.1875C96.6739 9.75001 99.0585 10.7377 100.817 12.4959C102.575 14.254 103.562 16.6386 103.562 19.125ZM33.25 28.5H70.75C70.75 23.5272 68.7746 18.7581 65.2582 15.2418C61.7419 11.7254 56.9728 9.75001 52 9.75001C47.0272 9.75001 42.2581 11.7254 38.7417 15.2418C35.2254 18.7581 33.25 23.5272 33.25 28.5ZM94.1875 19.125H78.5137C79.58 22.1356 80.1249 25.3061 80.125 28.5V33.1875C80.125 34.4307 79.6311 35.623 78.7521 36.5021C77.873 37.3811 76.6807 37.875 75.4375 37.875H28.5625C27.3193 37.875 26.127 37.3811 25.2479 36.5021C24.3689 35.623 23.875 34.4307 23.875 33.1875V28.5C23.8751 25.3061 24.42 22.1356 25.4863 19.125H9.8125V117.563H94.1875V19.125Z" fill="#FFF4D8"/>
</svg>
