<svg width="122" height="104" viewBox="0 0 122 104" fill="none" xmlns="http://www.w3.org/2000/svg">
<path d="M112.562 0.4375H9.4375C6.9511 0.4375 4.56653 1.42522 2.80837 3.18337C1.05022 4.94153 0.0625 7.3261 0.0625 9.8125V94.1875C0.0625 96.6739 1.05022 99.0585 2.80837 100.817C4.56653 102.575 6.9511 103.562 9.4375 103.562H17.2832C18.1704 103.563 19.0394 103.311 19.7893 102.837C20.5392 102.363 21.1392 101.686 21.5195 100.885C23.7989 96.0723 27.3977 92.0059 31.8973 89.1583C36.397 86.3107 41.6125 84.799 46.9375 84.799C52.2625 84.799 57.478 86.3107 61.9777 89.1583C66.4773 92.0059 70.0761 96.0723 72.3555 100.885C72.7358 101.686 73.3358 102.363 74.0857 102.837C74.8356 103.311 75.7047 103.563 76.5918 103.562H112.562C115.049 103.562 117.433 102.575 119.192 100.817C120.95 99.0585 121.938 96.6739 121.938 94.1875V9.8125C121.938 7.3261 120.95 4.94153 119.192 3.18337C117.433 1.42522 115.049 0.4375 112.562 0.4375ZM32.875 61.375C32.875 58.5937 33.6998 55.8749 35.245 53.5623C36.7902 51.2497 38.9864 49.4473 41.556 48.3829C44.1256 47.3186 46.9531 47.0401 49.681 47.5827C52.4088 48.1253 54.9145 49.4646 56.8812 51.4313C58.8479 53.398 60.1872 55.9037 60.7298 58.6315C61.2724 61.3594 60.9939 64.1869 59.9296 66.7565C58.8652 69.3261 57.0628 71.5223 54.7502 73.0675C52.4376 74.6128 49.7188 75.4375 46.9375 75.4375C43.2079 75.4375 39.631 73.9559 36.9938 71.3187C34.3566 68.6815 32.875 65.1046 32.875 61.375ZM112.562 94.1875H79.416C75.5016 87.4576 69.601 82.1034 62.5234 78.8594C66.0718 75.6999 68.5761 71.5366 69.7045 66.9213C70.8328 62.3061 70.5318 57.457 68.8415 53.0167C67.1511 48.5764 64.1512 44.7547 60.2394 42.0582C56.3276 39.3617 51.6886 37.9177 46.9375 37.9177C42.1864 37.9177 37.5474 39.3617 33.6356 42.0582C29.7238 44.7547 26.7239 48.5764 25.0335 53.0167C23.3432 57.457 23.0422 62.3061 24.1705 66.9213C25.2989 71.5366 27.8032 75.6999 31.3516 78.8594C24.274 82.1034 18.3734 87.4576 14.459 94.1875H9.4375V9.8125H112.562V94.1875ZM18.8125 33.25V23.875C18.8125 22.6318 19.3064 21.4395 20.1854 20.5604C21.0645 19.6814 22.2568 19.1875 23.5 19.1875H98.5C99.7432 19.1875 100.935 19.6814 101.815 20.5604C102.694 21.4395 103.188 22.6318 103.188 23.875V80.125C103.188 81.3682 102.694 82.5605 101.815 83.4396C100.935 84.3186 99.7432 84.8125 98.5 84.8125H89.125C87.8818 84.8125 86.6895 84.3186 85.8104 83.4396C84.9314 82.5605 84.4375 81.3682 84.4375 80.125C84.4375 78.8818 84.9314 77.6895 85.8104 76.8104C86.6895 75.9314 87.8818 75.4375 89.125 75.4375H93.8125V28.5625H28.1875V33.25C28.1875 34.4932 27.6936 35.6855 26.8146 36.5646C25.9355 37.4436 24.7432 37.9375 23.5 37.9375C22.2568 37.9375 21.0645 37.4436 20.1854 36.5646C19.3064 35.6855 18.8125 34.4932 18.8125 33.25Z" fill="#FFF4D8"/>
</svg>
