<svg width="132" height="99" viewBox="0 0 132 99" fill="none" xmlns="http://www.w3.org/2000/svg">
<path d="M73.0313 91.5313C73.0313 92.9219 72.6189 94.2813 71.8463 95.4376C71.0737 96.5939 69.9755 97.4951 68.6908 98.0273C67.406 98.5595 65.9922 98.6987 64.6283 98.4274C63.2644 98.1561 62.0115 97.4865 61.0282 96.5031C60.0448 95.5198 59.3752 94.2669 59.1039 92.903C58.8326 91.5391 58.9718 90.1253 59.504 88.8405C60.0362 87.5557 60.9374 86.4576 62.0937 85.685C63.25 84.9124 64.6094 84.5 66 84.5C67.8648 84.5 69.6532 85.2408 70.9719 86.5594C72.2905 87.8781 73.0313 89.6665 73.0313 91.5313ZM129.914 22.9766C111.894 8.19561 89.307 0.117432 66 0.117432C42.693 0.117432 20.1065 8.19561 2.08596 22.9766C1.61005 23.3675 1.21578 23.8483 0.925683 24.3915C0.635583 24.9348 0.455326 25.5299 0.395204 26.1428C0.335081 26.7557 0.396271 27.3745 0.57528 27.9637C0.754289 28.553 1.04761 29.1013 1.4385 29.5772C1.82939 30.0531 2.31019 30.4474 2.85344 30.7375C3.3967 31.0276 3.99178 31.2078 4.6047 31.2679C5.84255 31.3894 7.07793 31.0141 8.03908 30.2246C24.3821 16.8226 44.8645 9.49817 66 9.49817C87.1355 9.49817 107.618 16.8226 123.961 30.2246C124.922 31.0141 126.158 31.3894 127.395 31.2679C128.633 31.1465 129.772 30.5383 130.562 29.5772C131.351 28.616 131.726 27.3806 131.605 26.1428C131.483 24.9049 130.875 23.766 129.914 22.9766ZM111.117 43.9356C98.2813 33.7732 82.3894 28.2438 66.0176 28.2438C49.6458 28.2438 33.7539 33.7732 20.918 43.9356C19.9436 44.7079 19.316 45.8357 19.1731 47.0708C19.0303 48.3059 19.3839 49.5471 20.1563 50.5215C20.9286 51.4959 22.0564 52.1235 23.2915 52.2664C24.5266 52.4092 25.7679 52.0556 26.7422 51.2832C37.9211 42.4346 51.7605 37.6201 66.0176 37.6201C80.2747 37.6201 94.1141 42.4346 105.293 51.2832C105.775 51.6657 106.328 51.9494 106.921 52.1181C107.513 52.2869 108.132 52.3373 108.744 52.2666C109.355 52.1958 109.947 52.0053 110.485 51.7059C111.023 51.4065 111.497 51.004 111.879 50.5215C112.261 50.0391 112.545 49.486 112.714 48.894C112.883 48.3019 112.933 47.6823 112.862 47.0708C112.792 46.4592 112.601 45.8675 112.302 45.3296C112.002 44.7916 111.6 44.318 111.117 43.9356ZM92.2149 64.8887C84.6008 59.3551 75.4301 56.3746 66.0176 56.3746C56.6051 56.3746 47.4344 59.3551 39.8203 64.8887C38.8149 65.6206 38.1414 66.722 37.948 67.9505C37.7546 69.179 38.0571 70.434 38.7891 71.4395C39.521 72.4449 40.6224 73.1184 41.8509 73.3118C43.0794 73.5052 44.3344 73.2027 45.3399 72.4707C51.3487 68.1007 58.5877 65.7467 66.0176 65.7467C73.4475 65.7467 80.6865 68.1007 86.6953 72.4707C87.1932 72.8332 87.7575 73.094 88.3562 73.2383C88.9548 73.3826 89.576 73.4076 90.1843 73.3118C90.7926 73.2161 91.3761 73.0014 91.9014 72.6802C92.4268 72.3589 92.8837 71.9373 93.2461 71.4395C93.6085 70.9416 93.8693 70.3773 94.0137 69.7786C94.158 69.18 94.183 68.5588 94.0872 67.9505C93.9914 67.3422 93.7768 66.7587 93.4556 66.2334C93.1343 65.708 92.7127 65.2511 92.2149 64.8887Z" fill="#FFF4D8"/>
</svg>
